<svg width="70" height="71" viewBox="0 0 70 71" fill="none" xmlns="http://www.w3.org/2000/svg">
<path d="M70 0.656738H0V70.6567H70V0.656738Z" fill="#797EF3"/>
<path d="M43.3875 70.6568H17.6807C18.3037 68.3734 18.8091 66.3503 18.9029 65.9261C19.7219 62.1727 20.2399 58.3648 20.4471 54.5441C20.5549 52.5631 20.5801 50.578 20.5213 48.5956C20.4807 47.2221 19.8549 45.0269 20.4779 43.7179C21.6707 41.2077 27.2161 44.1547 29.6787 44.4753C33.9081 45.0269 38.2089 44.7679 42.4523 44.5103C41.8069 53.2253 42.1233 61.9978 43.3875 70.6568Z" fill="#797EF3"/>
<path d="M61.2711 39.8413C61.6673 41.6347 62.4289 43.3735 62.4429 45.2117C62.0621 45.3041 61.7079 45.0003 61.4461 44.7091C58.6783 41.6249 57.7991 37.3199 57.2181 33.2165C56.8597 30.6825 55.9399 26.4741 57.1411 24.0745C57.7529 22.8523 59.9677 21.4313 61.2333 22.6073C62.7299 24.0003 61.5231 28.9115 61.3243 30.6993C60.9869 33.7317 60.6033 36.8229 61.2711 39.8413Z" fill="#444DF2"/>
<path d="M39.4408 5.33828C38.2606 4.66768 37.0356 4.07548 35.7658 3.57708C30.3436 1.45188 23.975 1.23629 18.8398 3.98728C14.322 6.40789 11.1581 10.8865 9.45425 15.7207C7.75045 20.5549 7.37524 25.7531 7.34864 30.8771C7.31504 37.1071 7.77565 43.3329 8.54285 49.5139C9.03285 53.4675 10.2564 63.6315 15.547 63.8415C22.0416 64.0977 28.56 63.7757 34.9986 62.8853C40.4824 62.1279 49.518 66.3027 53.9 62.5367C56.5166 60.2869 55.5618 52.2019 56.6847 48.9385C58.0496 44.9737 59.0675 40.8507 59.1893 36.6591C59.3503 31.1333 57.9125 25.5683 55.0942 20.8125C53.5949 18.2827 51.723 15.9895 49.7266 13.8307C46.6984 10.5575 43.3006 7.53068 39.4408 5.33828Z" fill="#444DF2"/>
<path d="M43.3875 70.6568H17.6807C18.3037 68.3734 18.8091 66.3503 18.9029 65.9261C19.7219 62.1727 20.2399 58.3648 20.4471 54.5441C20.5549 52.5631 20.5801 50.578 20.5213 48.5956C20.4807 47.2221 19.8549 45.0269 20.4779 43.7179C21.6707 41.2077 27.2161 44.1547 29.6787 44.4753C33.9081 45.0269 38.2089 44.7679 42.4523 44.5103C41.8069 53.2253 42.1233 61.9978 43.3875 70.6568Z" fill="#E8AE8E"/>
<path d="M20.8221 53.0434C25.1005 57.6382 30.9917 60.5516 37.3155 62.184C43.3355 63.738 50.4238 63.9214 55.0326 59.748C58.905 56.2424 59.9605 50.6312 60.3582 45.4218C60.8341 39.1806 60.6829 32.9086 60.4099 26.6562C60.2909 23.9374 60.1468 21.2004 59.4944 18.56C58.5074 14.5672 56.0419 9.2612 52.1387 7.4888C47.4235 5.3482 41.7745 4.784 36.673 5.3608C32.9811 5.778 29.2249 6.2204 25.8313 7.7282C22.7821 9.0834 18.8299 10.8124 17.2017 13.8378C15.1367 17.6738 13.9621 22.109 13.4623 26.4182C12.7035 32.9534 13.5897 39.6986 16.1307 45.7746C17.2941 48.5648 18.8943 50.9742 20.8221 53.0434Z" fill="#F4C19F"/>
<path d="M17.2313 27.5298C16.3367 26.4728 15.0865 25.7686 13.3799 25.7294C10.8725 25.672 8.47146 27.3996 7.56426 29.739C6.10406 33.5064 8.54566 38.104 11.8371 40.0472C14.7603 41.772 18.1917 40.7668 19.0443 37.355C19.4223 35.8416 19.2739 34.254 19.1213 32.7014C18.9393 30.831 18.3793 28.8878 17.2313 27.5298Z" fill="#F4C19F"/>
<path d="M11.7362 36.8987C11.3414 36.8987 11.0054 36.5963 10.9704 36.1959C10.857 34.8911 11.368 34.1071 11.816 33.6787C12.6322 32.8989 13.8236 32.6959 14.6874 32.6637C14.5572 32.3683 14.3668 32.1219 14.1134 31.9203C12.9626 31.0047 10.8934 31.2875 10.8724 31.2903C10.4524 31.3547 10.059 31.0649 9.99602 30.6449C9.93162 30.2249 10.2214 29.8315 10.6414 29.7685C10.752 29.7517 13.3812 29.3723 15.071 30.7149C15.8802 31.3589 16.3366 32.2661 16.4248 33.4099C16.443 33.6409 16.3548 33.8691 16.1868 34.0287C16.0174 34.1883 15.7864 34.2625 15.5554 34.2331C15.043 34.1673 13.5604 34.1393 12.8772 34.7945C12.5776 35.0829 12.4558 35.4973 12.5048 36.0629C12.5412 36.4871 12.2276 36.8595 11.8048 36.8973C11.781 36.8973 11.7586 36.8987 11.7362 36.8987Z" fill="#EAAA7F"/>
<path d="M29.8815 23.9892C29.8773 23.9948 29.8745 24.0004 29.8703 24.006C29.4083 24.6822 27.7745 24.615 27.0689 24.7046C26.4823 24.7788 18.1635 25.5152 18.1243 25.1246C18.4421 28.3656 18.7599 31.608 19.0777 34.849C19.4809 38.9678 19.8239 43.3918 17.7687 46.9842C18.5205 41.506 17.5349 35.8024 14.9883 30.894C14.1777 29.3302 13.1991 27.8098 12.8547 26.0822C12.5593 24.5954 12.7567 23.0554 13.0703 21.5728C13.8543 17.8796 15.3677 14.3432 17.4985 11.2268C21.4115 5.50639 28.5123 2.58599 35.2533 2.10719C38.2493 1.89439 41.2621 1.92519 44.2525 2.19959C48.5365 2.59299 53.4155 3.98739 56.2435 7.44399C57.9081 9.47959 58.9735 11.9268 60.0179 14.3404C60.2559 14.8906 63.5683 25.0252 62.7297 24.8418C61.0245 24.4708 59.3207 24.0998 57.6155 23.7288C55.7857 23.3312 53.9545 22.9322 52.0981 22.6872C48.3055 22.1874 44.4709 22.3414 40.6713 22.6746C39.6759 22.7614 33.4697 24.1796 32.9741 22.7502C32.1537 20.3842 31.3319 18.0182 30.5115 15.6522C30.3771 15.2658 29.8129 14.8542 29.6827 15.242C29.6855 16.8674 30.6739 22.7642 29.8815 23.9892Z" fill="#444DF2"/>
<path d="M44.2861 44.5537C43.8619 44.5537 43.5175 44.2107 43.5161 43.7865C43.5147 43.3609 43.8577 43.0151 44.2819 43.0137C44.3323 43.0137 49.2519 42.9521 49.5319 40.2249C49.6425 39.1413 49.3177 38.7647 48.7283 38.0829C47.7595 36.9629 46.4337 35.4285 46.5219 30.4613C46.5289 30.0413 46.8719 29.7053 47.2919 29.7053C47.2961 29.7053 47.3017 29.7053 47.3059 29.7053C47.7315 29.7123 48.0703 30.0637 48.0619 30.4893C47.9835 34.8685 49.0419 36.0921 49.8931 37.0763C50.5567 37.8435 51.2427 38.6387 51.0635 40.3831C50.6421 44.4823 44.5479 44.5537 44.2889 44.5551C44.2889 44.5537 44.2875 44.5537 44.2861 44.5537Z" fill="#1B1464"/>
<path d="M38.1026 37.1164C39.2252 37.0427 40.0349 35.4524 39.9109 33.5644C39.787 31.6763 38.7765 30.2055 37.6538 30.2792C36.5312 30.3529 35.7216 31.9432 35.8455 33.8312C35.9694 35.7192 36.98 37.1901 38.1026 37.1164Z" fill="#1B1464"/>
<path d="M53.6573 36.6794C54.7799 36.6057 55.5895 35.0154 55.4656 33.1273C55.3417 31.2393 54.3311 29.7685 53.2085 29.8422C52.0859 29.9159 51.2762 31.5061 51.4002 33.3942C51.5241 35.2822 52.5346 36.7531 53.6573 36.6794Z" fill="#1B1464"/>
<path d="M57.4896 29.4982C57.3314 29.4982 57.1732 29.4506 57.036 29.3498C53.6746 26.8928 50.652 27.6572 50.5246 27.6908C50.1144 27.8 49.693 27.5578 49.5824 27.1476C49.4718 26.7388 49.7112 26.3174 50.1186 26.204C50.274 26.162 53.9574 25.1918 57.9446 28.1052C58.2876 28.3558 58.3632 28.8374 58.1126 29.1818C57.9614 29.389 57.7276 29.4982 57.4896 29.4982Z" fill="#1B1464"/>
<path d="M30.1589 30.334C30.0385 30.334 29.9153 30.306 29.8005 30.2444C29.4239 30.0456 29.2797 29.5808 29.4785 29.2042C29.5555 29.0586 31.4413 25.658 39.4311 25.658C39.5011 25.658 39.5711 25.658 39.6425 25.6594C40.0681 25.6622 40.4097 26.0094 40.4069 26.435C40.4041 26.8578 40.0597 27.1994 39.6369 27.1994C39.6355 27.1994 39.6327 27.1994 39.6313 27.1994C32.5081 27.1476 30.8547 29.8944 30.8407 29.9224C30.7035 30.1842 30.4361 30.334 30.1589 30.334Z" fill="#1B1464"/>
<path d="M43.0053 51.0863C36.9111 51.0863 32.8567 46.1513 32.6747 45.9273C32.4073 45.5969 32.4591 45.1111 32.7909 44.8451C33.1213 44.5777 33.6057 44.6295 33.8731 44.9613C33.9361 45.0383 38.2131 50.2029 44.1939 49.4749C44.6167 49.4245 45.0003 49.7241 45.0507 50.1469C45.1025 50.5683 44.8015 50.9533 44.3787 51.0037C43.9111 51.0597 43.4519 51.0863 43.0053 51.0863Z" fill="#1B1464"/>
<path d="M42.1134 63.7968C33.138 63.7968 23.9736 56.9326 23.5886 56.64C23.2498 56.3838 23.1826 55.9008 23.4402 55.562C23.6964 55.2232 24.1794 55.156 24.5196 55.4122C24.6106 55.4808 33.6616 62.2554 42.1148 62.2554C42.5404 62.2554 42.8848 62.5998 42.8848 63.0254C42.8848 63.451 42.539 63.7968 42.1134 63.7968Z" fill="#1B1464"/>
</svg>
