<svg width="22" height="22" viewBox="0 0 22 22" fill="none" xmlns="http://www.w3.org/2000/svg">
<path d="M5.59995 13.95H16.4C16.6833 13.95 16.921 13.854 17.113 13.662C17.3043 13.4707 17.4 13.2334 17.4 12.95C17.4 12.6667 17.3043 12.429 17.113 12.237C16.921 12.0457 16.6833 11.95 16.4 11.95H5.59995C5.31662 11.95 5.07928 12.0457 4.88795 12.237C4.69595 12.429 4.59995 12.6667 4.59995 12.95C4.59995 13.2334 4.69595 13.4707 4.88795 13.662C5.07928 13.854 5.31662 13.95 5.59995 13.95ZM5.59995 10.6H16.4C16.6833 10.6 16.921 10.504 17.113 10.312C17.3043 10.1207 17.4 9.88336 17.4 9.60003C17.4 9.31669 17.3043 9.07902 17.113 8.88702C16.921 8.69569 16.6833 8.60002 16.4 8.60002H5.59995C5.31662 8.60002 5.07928 8.69569 4.88795 8.88702C4.69595 9.07902 4.59995 9.31669 4.59995 9.60003C4.59995 9.88336 4.69595 10.1207 4.88795 10.312C5.07928 10.504 5.31662 10.6 5.59995 10.6ZM5.59995 7.25002H16.4C16.6833 7.25002 16.921 7.15436 17.113 6.96302C17.3043 6.77102 17.4 6.53336 17.4 6.25002C17.4 5.96669 17.3043 5.72902 17.113 5.53702C16.921 5.34569 16.6833 5.25002 16.4 5.25002H5.59995C5.31662 5.25002 5.07928 5.34569 4.88795 5.53702C4.69595 5.72902 4.59995 5.96669 4.59995 6.25002C4.59995 6.53336 4.69595 6.77102 4.88795 6.96302C5.07928 7.15436 5.31662 7.25002 5.59995 7.25002ZM19.575 20.825L17.15 18.4H2.84995C2.11662 18.4 1.49162 18.1417 0.974951 17.625C0.458284 17.1084 0.199951 16.4834 0.199951 15.75V3.55002C0.199951 2.81669 0.458284 2.19169 0.974951 1.67502C1.49162 1.15836 2.11662 0.900024 2.84995 0.900024H19.15C19.8833 0.900024 20.5083 1.15836 21.025 1.67502C21.5416 2.19169 21.7999 2.81669 21.7999 3.55002V19.9C21.7999 20.4834 21.5333 20.8874 21 21.112C20.4666 21.3374 19.9916 21.2417 19.575 20.825ZM2.84995 3.55002V15.75H18.25L19.15 16.65V3.55002H2.84995Z" fill="#535AF1"/>
</svg>
