<svg width="18" height="18" viewBox="0 0 18 18" fill="none" xmlns="http://www.w3.org/2000/svg">
<path d="M7.5 16.7001L0.75 9.95012C0.616667 9.81678 0.521 9.67078 0.463 9.51212C0.404333 9.35412 0.375 9.19178 0.375 9.02512C0.375 8.85845 0.404333 8.69578 0.463 8.53712C0.521 8.37912 0.616667 8.23345 0.75 8.10012L7.525 1.32512C7.79167 1.05845 8.10433 0.929117 8.463 0.937117C8.821 0.945784 9.13333 1.08345 9.4 1.35012C9.66667 1.61678 9.8 1.93345 9.8 2.30012C9.8 2.66678 9.66667 2.98345 9.4 3.25012L4.95 7.70012H15.75C16.1167 7.70012 16.4293 7.82912 16.688 8.08712C16.946 8.34578 17.075 8.65845 17.075 9.02512C17.075 9.39178 16.946 9.70412 16.688 9.96212C16.4293 10.2208 16.1167 10.3501 15.75 10.3501H4.95L9.425 14.8251C9.69167 15.0918 9.82067 15.4045 9.812 15.7631C9.804 16.1211 9.66667 16.4335 9.4 16.7001C9.13333 16.9668 8.81667 17.1001 8.45 17.1001C8.08333 17.1001 7.76667 16.9668 7.5 16.7001Z" fill="black"/>
</svg>

