<svg width="24" height="24" viewBox="0 0 24 24" fill="none" xmlns="http://www.w3.org/2000/svg">
<mask id="mask0_516_7031" style="mask-type:alpha" maskUnits="userSpaceOnUse" x="0" y="0" width="24" height="24">
<rect width="24" height="24" fill="#D9D9D9"/>
</mask>
<g mask="url(#mask0_516_7031)">
<path d="M12 22.8002C10.5333 22.8002 9.14162 22.5129 7.82495 21.9382C6.50828 21.3629 5.36262 20.5875 4.38795 19.6122C3.41262 18.6375 2.63728 17.4919 2.06195 16.1752C1.48728 14.8585 1.19995 13.4669 1.19995 12.0002C1.19995 10.5169 1.48728 9.12086 2.06195 7.81219C2.63728 6.50419 3.41262 5.36253 4.38795 4.3872C5.36262 3.41253 6.50828 2.63753 7.82495 2.0622C9.14162 1.48753 10.5333 1.2002 12 1.2002C13.4833 1.2002 14.8793 1.48753 16.188 2.0622C17.496 2.63753 18.6376 3.41253 19.613 4.3872C20.5876 5.36253 21.3626 6.50419 21.938 7.81219C22.5126 9.12086 22.7999 10.5169 22.7999 12.0002V13.8252C22.7999 15.0085 22.4126 15.9502 21.638 16.6502C20.8626 17.3502 19.9583 17.7002 18.9249 17.7002C18.3416 17.7002 17.775 17.5875 17.225 17.3622C16.675 17.1375 16.2 16.8335 15.8 16.4502C15.3 16.8502 14.7043 17.1585 14.013 17.3752C13.321 17.5919 12.65 17.7002 12 17.7002C10.4166 17.7002 9.07095 17.1462 7.96295 16.0382C6.85428 14.9295 6.29995 13.5835 6.29995 12.0002C6.29995 10.4169 6.85428 9.07119 7.96295 7.96319C9.07095 6.85453 10.4166 6.3002 12 6.3002C13.5833 6.3002 14.9293 6.85453 16.038 7.96319C17.146 9.07119 17.7 10.4169 17.7 12.0002V13.8252C17.7 14.1585 17.8206 14.4462 18.062 14.6882C18.304 14.9295 18.5916 15.0502 18.9249 15.0502C19.2583 15.0502 19.5459 14.9295 19.788 14.6882C20.0293 14.4462 20.15 14.1585 20.15 13.8252V12.0002C20.15 9.76686 19.35 7.8502 17.75 6.2502C16.15 4.6502 14.2333 3.8502 12 3.8502C9.76662 3.8502 7.84995 4.6502 6.24995 6.2502C4.64995 7.8502 3.84995 9.76686 3.84995 12.0002C3.84995 14.2335 4.64995 16.1502 6.24995 17.7502C7.84995 19.3502 9.76662 20.1502 12 20.1502H15.775C16.1416 20.1502 16.454 20.2795 16.712 20.5382C16.9706 20.7962 17.1 21.1085 17.1 21.4752C17.1 21.8419 16.9706 22.1545 16.712 22.4132C16.454 22.6712 16.1416 22.8002 15.775 22.8002H12ZM12 15.0502C12.85 15.0502 13.571 14.7542 14.163 14.1622C14.7543 13.5709 15.05 12.8502 15.05 12.0002C15.05 11.1502 14.7543 10.4292 14.163 9.8372C13.571 9.24586 12.85 8.9502 12 8.9502C11.15 8.9502 10.4293 9.24586 9.83795 9.8372C9.24595 10.4292 8.94995 11.1502 8.94995 12.0002C8.94995 12.8502 9.24595 13.5709 9.83795 14.1622C10.4293 14.7542 11.15 15.0502 12 15.0502Z" fill="#535AF1"/>
</g>
</svg>
