<svg
  width="7"
  height="12"
  viewBox="0 0 7 12"
  fill="none"
  xmlns="http://www.w3.org/2000/svg"
>
  <path
    d="M0.0105798 6.00016C0.0105798 5.86127 0.0366223 5.7269 0.0887058 5.59704C0.140789 5.46648 0.210233 5.3578 0.297039 5.271L5.0887 0.479329C5.27968 0.288357 5.52273 0.192871 5.81787 0.192871C6.11301 0.192871 6.35607 0.288357 6.54704 0.479329C6.73801 0.670301 6.8335 0.913357 6.8335 1.2085C6.8335 1.50363 6.73801 1.74669 6.54704 1.93766L2.48454 6.00016L6.54704 10.0627C6.73801 10.2536 6.8335 10.4967 6.8335 10.7918C6.8335 11.087 6.73801 11.33 6.54704 11.521C6.35607 11.712 6.11301 11.8075 5.81787 11.8075C5.52273 11.8075 5.27968 11.712 5.0887 11.521L0.297039 6.72933C0.192872 6.62516 0.119261 6.51231 0.0762055 6.39079C0.0324557 6.26926 0.0105798 6.13905 0.0105798 6.00016Z"
    fill="black"
  />
</svg>
