<svg width="70" height="70" viewBox="0 0 70 70" fill="none" xmlns="http://www.w3.org/2000/svg">
<path d="M70 0H0V70H70V0Z" fill="#ADB0D9"/>
<path d="M42.9675 70H11.8147C11.9253 69.671 12.0387 69.3434 12.1493 69.0158C14.3725 62.4288 15.2391 56.0518 15.3665 49.147C23.2541 51.1546 31.5379 50.2936 39.6761 50.2096C42.7043 50.1788 41.6865 52.549 41.7257 54.754C41.7733 57.5106 41.9161 60.2658 42.1541 63.0126C42.3557 65.3492 42.6273 67.6802 42.9675 70Z" fill="#ADB0D9"/>
<path d="M42.9675 70H11.8147C11.9253 69.671 12.0387 69.3434 12.1493 69.0158C14.3725 62.4288 15.2391 56.0518 15.3665 49.147C23.2541 51.1546 31.5379 50.2936 39.6761 50.2096C42.7043 50.1788 41.6865 52.549 41.7257 54.754C41.7733 57.5106 41.9161 60.2658 42.1541 63.0126C42.3557 65.3492 42.6273 67.6802 42.9675 70Z" fill="#E8AE8E"/>
<path d="M20.8739 54.7848C20.9243 54.845 20.9761 54.9052 21.0265 54.964C21.6761 55.7284 22.3299 56.497 23.0943 57.148C27.0801 60.5388 33.2835 60.928 38.1933 61.8856C41.1753 62.4666 44.1601 62.566 47.0987 61.6658C50.4867 60.627 53.5261 58.3366 55.2285 55.2286C57.3481 51.3562 57.2627 46.6998 57.1227 42.287C57.0429 39.7824 56.9631 37.2792 56.8833 34.7746C56.8329 33.2038 56.7839 31.6316 56.8637 30.0622C57.0597 26.194 58.0705 22.2264 57.2361 18.3708C56.5431 15.1704 53.8663 11.83 50.8787 10.4734C46.1635 8.33282 40.5145 7.76862 35.4129 8.34542C31.7211 8.76262 27.9649 9.20502 24.5713 10.7128C21.5221 12.068 17.5699 13.797 15.9417 16.8224C13.8767 20.6584 12.7021 25.0936 12.2023 29.4028C11.7893 32.9644 11.8635 36.5834 12.4277 40.1254C12.9611 43.4756 13.8529 46.5234 16.0677 49.1288C17.6679 51.0146 19.2709 52.899 20.8739 54.7848Z" fill="#F4C19F"/>
<path d="M43.0263 43.8969C42.6091 43.8969 42.2661 43.5637 42.2563 43.1451C42.2465 42.7195 42.5825 42.3667 43.0081 42.3569C44.9275 42.3121 45.6933 41.7563 46.9967 40.5579C45.5071 37.2301 44.6307 33.6993 44.3885 30.0537C44.3605 29.6295 44.6811 29.2627 45.1053 29.2347C45.5267 29.2081 45.8963 29.5273 45.9243 29.9515C46.1623 33.5411 47.0961 37.1601 48.6249 40.4165C48.7677 40.7189 48.6977 41.0787 48.4527 41.3069C46.6691 42.9673 45.6191 43.8367 43.0431 43.8955C43.0389 43.8969 43.0333 43.8969 43.0263 43.8969Z" fill="#1B1464"/>
<path d="M36.8458 36.4592C37.9684 36.3855 38.778 34.7952 38.6541 32.9071C38.5302 31.0191 37.5196 29.5483 36.397 29.6219C35.2743 29.6956 34.4647 31.2859 34.5886 33.174C34.7126 35.062 35.7231 36.5328 36.8458 36.4592Z" fill="#1B1464"/>
<path d="M52.4007 36.0224C53.5233 35.9487 54.333 34.3584 54.209 32.4704C54.0851 30.5823 53.0746 29.1115 51.9519 29.1852C50.8293 29.2589 50.0197 30.8492 50.1436 32.7372C50.2675 34.6253 51.2781 36.0961 52.4007 36.0224Z" fill="#1B1464"/>
<path d="M55.9019 29.6589C55.6835 29.6589 55.465 29.5665 55.3138 29.3859C52.6006 26.1771 49.4114 26.2401 49.3806 26.2387C48.9508 26.2541 48.6008 25.9181 48.5868 25.4925C48.5728 25.0669 48.9074 24.7127 49.333 24.6987C49.4926 24.6945 53.302 24.6189 56.4912 28.3905C56.7656 28.7153 56.725 29.2011 56.4002 29.4755C56.2532 29.5987 56.0769 29.6589 55.9019 29.6589Z" fill="#1B1464"/>
<path d="M29.5175 30.9274C29.4643 30.9274 29.4111 30.9218 29.3565 30.9106C28.9407 30.8238 28.6747 30.4094 28.7615 29.9936C28.7951 29.8312 29.6869 25.977 37.5577 23.786C37.9679 23.6726 38.3921 23.912 38.5055 24.3208C38.6189 24.731 38.3795 25.1552 37.9707 25.2686C31.1135 27.1782 30.2749 30.289 30.2665 30.3198C30.1895 30.6838 29.8731 30.9274 29.5175 30.9274Z" fill="#1B1464"/>
<path d="M43.1857 51.8182C42.5767 51.8182 41.944 51.7286 41.3084 51.5466C39.8286 51.1224 38.5041 50.2782 37.3365 49.5334C36.9781 49.3052 36.8732 48.8278 37.1014 48.4708C37.3296 48.1124 37.8055 48.0074 38.1639 48.2356C39.2951 48.958 40.4655 49.7056 41.7297 50.0668C43.0415 50.442 44.2987 50.3188 45.1793 49.7294C45.5321 49.4928 46.0109 49.588 46.2475 49.9408C46.4841 50.2936 46.3889 50.7724 46.0361 51.009C45.2381 51.5438 44.2497 51.8182 43.1857 51.8182Z" fill="#1B1464"/>
<path d="M15.2403 42.2995C14.7069 39.9447 15.2963 37.2819 15.4125 34.8823C15.4279 34.5785 15.4545 34.2439 15.6561 34.0297C16.0649 33.5943 16.7327 33.9835 17.2843 34.1655C18.3063 34.5015 19.4529 33.9611 20.1291 33.0777C20.9271 32.0361 21.1581 30.6277 21.1931 29.2823C21.2127 28.5207 21.1511 27.8711 20.8529 27.1893C20.6723 26.7791 20.2761 25.6115 19.8365 25.4589C21.6383 26.0805 23.8251 25.9769 25.1649 24.5517C25.5653 24.1261 25.8677 23.6067 26.1253 23.0705C26.8099 21.6425 27.4833 19.1071 26.1911 17.8555C27.4385 19.1113 29.2207 20.0185 30.9651 19.5873C32.7445 19.1463 34.0955 16.8685 33.2387 15.1493C34.1277 17.0267 35.2393 19.1015 37.1545 19.6041C39.2853 20.1641 41.6219 17.9969 41.3951 15.6701C42.3331 18.0277 43.7709 20.3825 46.0221 21.2785C48.2719 22.1745 51.3561 20.8277 51.5871 18.2783C51.5255 18.9475 51.2623 19.6629 51.2959 20.3279C51.4219 22.8059 53.6549 24.7127 55.5267 25.8131C57.3187 26.8659 59.4229 28.0321 61.5733 27.6723C63.6075 27.3335 64.6155 25.6199 64.9151 23.5661C65.1111 22.2207 65.0243 20.6989 64.1423 19.7133C63.1511 21.2729 61.3087 22.1647 59.5545 21.9365C60.5639 21.3415 61.3157 20.1305 61.1463 18.9153C60.9447 17.4551 59.5321 16.8825 58.3617 17.1625C59.5265 15.6701 61.0581 14.5599 60.9713 12.3451C60.8747 9.88808 58.8951 7.38348 56.9533 6.28028C55.9411 5.70488 54.7553 5.37168 53.6381 5.64748C52.5209 5.92328 51.5171 6.92008 51.4289 8.13948C51.1363 5.74548 49.6089 3.66088 47.7021 2.36028C45.7953 1.05968 43.5385 0.457682 41.2929 0.144082C39.8565 -0.0575175 38.3291 -0.134518 37.0271 0.541682C35.7251 1.21788 34.7689 2.87688 35.2645 4.32728C33.5887 1.70508 30.5745 0.306482 27.6037 0.109082C24.6329 -0.0883175 21.6873 0.779682 18.9097 1.92208C17.8527 2.35748 16.7523 2.88248 16.1167 3.88208C14.7433 6.04368 16.2483 8.92068 17.8177 10.9227C16.8825 8.86748 14.3639 8.39428 12.2219 8.34808C9.9889 8.30048 7.3121 8.73028 6.3769 10.8919C5.3619 13.2355 7.11469 15.8143 8.74849 17.7169C6.33349 16.6375 3.20309 18.7263 3.05889 21.5137C2.91469 24.3011 5.80989 26.7455 8.32289 25.9545C7.71389 25.1299 6.3573 25.4519 5.8183 26.3311C5.2793 27.2089 5.35489 28.3597 5.57889 29.3817C5.94149 31.0435 6.64569 32.6199 7.62569 33.9695C8.38029 35.0083 10.0463 35.8413 10.6623 34.7031C8.8815 34.8767 7.2673 36.3033 6.7773 38.1373C6.2873 39.9699 6.95509 42.0909 8.38309 43.2375C9.01729 43.7471 9.83629 44.0761 10.6077 43.8773C11.3791 43.6785 12.0175 42.8189 11.8229 41.9985C11.0487 41.6527 10.1261 42.3107 9.86849 43.1619C9.61089 44.0131 9.85589 44.9469 10.2157 45.7547C10.8639 47.2121 11.8943 48.4721 13.1585 49.3569C13.4455 49.5571 13.7731 49.7461 14.1119 49.6943C14.6285 49.6159 14.9253 49.0349 15.0989 48.5113C15.7905 46.4309 15.7121 44.4023 15.2403 42.2995Z" fill="#444DF2"/>
<path d="M16.2513 28.273C15.3567 27.216 14.1065 26.5118 12.3999 26.4726C9.89247 26.4152 7.49148 28.1428 6.58428 30.4822C5.12408 34.2496 7.56568 38.8472 10.8571 40.7904C13.7803 42.5152 17.2117 41.51 18.0643 38.0982C18.4423 36.5848 18.2939 34.9972 18.1413 33.4446C17.9593 31.5742 17.3993 29.631 16.2513 28.273Z" fill="#F4C19F"/>
<path d="M10.7562 37.6419C10.3614 37.6419 10.0254 37.3395 9.99043 36.9391C9.87703 35.6343 10.388 34.8503 10.836 34.4219C11.6522 33.6421 12.8436 33.4391 13.7074 33.4069C13.5772 33.1115 13.3868 32.8651 13.1334 32.6635C11.9826 31.7479 9.91344 32.0307 9.89244 32.0335C9.47244 32.0993 9.07904 31.8081 9.01604 31.3881C8.95164 30.9681 9.24144 30.5747 9.66144 30.5117C9.77204 30.4949 12.4012 30.1155 14.091 31.4581C14.9002 32.1021 15.3566 33.0093 15.4448 34.1531C15.463 34.3841 15.3748 34.6123 15.2068 34.7719C15.0374 34.9315 14.8064 35.0057 14.5754 34.9763C14.063 34.9105 12.5804 34.8825 11.8972 35.5377C11.5976 35.8261 11.4758 36.2405 11.5248 36.8061C11.5612 37.2303 11.2476 37.6027 10.8248 37.6405C10.801 37.6405 10.7786 37.6419 10.7562 37.6419Z" fill="#EAAA7F"/>
<path d="M41.2217 62.6948C41.0047 62.6948 37.3899 62.6752 32.7573 61.4754C28.4173 60.3512 22.3497 57.9292 18.0965 52.78C17.8263 52.4524 17.8725 51.9666 18.2001 51.6964C18.5277 51.4262 19.0135 51.4724 19.2837 51.8C23.2653 56.6202 28.9969 58.905 33.1031 59.9746C37.5929 61.1436 41.1797 61.1548 41.2245 61.1548C41.6501 61.1548 41.9945 61.4992 41.9945 61.9234C41.9945 62.349 41.6515 62.6934 41.2259 62.6948C41.2259 62.6948 41.2245 62.6948 41.2217 62.6948Z" fill="#1B1464"/>
</svg>
