<svg width="70" height="70" viewBox="0 0 70 70" fill="none" xmlns="http://www.w3.org/2000/svg">
<g clip-path="url(#clip0_463_6038)">
<rect width="70" height="70" rx="35" fill="white"/>
<path d="M70 0.00146484H0V69.9999H70V0.00146484Z" fill="#444DF2"/>
<path d="M41.1811 58.1985C40.6953 62.0974 40.2291 66.0593 40.0737 70.0002H7.40186C7.83166 69.3408 8.34126 68.6437 8.91246 67.8835C11.7167 64.1582 13.9889 60.0339 15.6507 55.6772C16.4809 53.5002 17.1599 51.2631 17.6737 48.9895C18.0321 47.4118 19.2277 43.986 18.6915 42.4307C18.9981 43.321 19.4307 44.1442 19.9613 44.9044C21.6399 47.3081 24.3013 49.0595 27.0677 50.1655C30.7091 51.6201 34.6375 52.1814 38.4063 53.2636C39.1945 53.4904 40.0149 53.7648 40.5651 54.3738C41.4583 55.365 41.3463 56.8741 41.1811 58.1985Z" fill="#444DF2"/>
<path d="M41.1811 58.1985C40.6953 62.0974 40.2291 66.0593 40.0737 70.0002H7.40186C7.83166 69.3408 8.34126 68.6437 8.91246 67.8835C11.7167 64.1582 13.9889 60.0339 15.6507 55.6772C16.4809 53.5002 17.1599 51.2631 17.6737 48.9895C18.0321 47.4118 19.2277 43.986 18.6915 42.4307C18.9981 43.321 19.4307 44.1442 19.9613 44.9044C21.6399 47.3081 24.3013 49.0595 27.0677 50.1655C30.7091 51.6201 34.6375 52.1814 38.4063 53.2636C39.1945 53.4904 40.0149 53.7648 40.5651 54.3738C41.4583 55.365 41.3463 56.8741 41.1811 58.1985Z" fill="#EAAA7F"/>
<path d="M14.8218 25.485C14.777 22.4219 15.1018 19.3196 16.5172 16.5686C18.9448 11.8465 24.2704 8.9192 29.6814 7.89442C35.0938 6.86965 40.6588 7.46883 46.109 8.11282C49.3836 8.50061 54.2668 9.0914 56.0238 12.0915C58.3464 16.0534 58.5718 21.7723 59.0338 26.206C59.4958 30.6397 60.06 35.0622 60.5024 39.4987C60.8902 43.3892 60.7404 47.5191 59.1668 51.2178C57.2866 55.6389 53.1706 59.234 48.2902 60.4226C41.3476 62.1124 31.8668 59.913 27.3994 54.645C24.1192 50.7768 20.4428 46.5601 18.2714 42.0214C16.0384 37.3539 15.1298 32.1853 14.875 27.0698C14.8484 26.5434 14.8288 26.0142 14.8218 25.485Z" fill="#F7C9A4"/>
<path d="M19.8114 44.4184C18.816 44.5304 17.8388 44.4352 16.9442 43.9704C15.8494 43.402 15.0864 42.3674 14.385 41.3539C10.4552 35.6826 7.45222 28.8605 6.83342 21.9251C6.59682 19.2666 7.21702 16.4064 9.08462 14.4983C9.56062 14.0125 10.1122 13.5911 10.4902 13.0255C10.9886 12.2807 11.137 11.3637 11.4562 10.5252C12.5076 7.75743 15.2936 5.80308 17.9788 4.55851C30.3338 -1.16736 45.5644 -2.02694 57.2096 5.03309C58.198 5.63228 59.1752 6.58286 59.8584 7.51384C62.7284 11.4267 59.9298 16.8852 56.3528 19.0356C51.2638 22.0959 45.9662 23.3615 40.026 22.6755C35.0392 22.0987 30.254 20.4327 25.515 18.7766C27.3672 23.3055 27.2972 28.4196 25.5864 32.9751C24.7926 35.0904 24.9886 36.244 24.9676 38.4489C24.955 39.7327 25.0054 42.7552 23.4948 43.3544C22.323 43.8192 21.0532 44.2798 19.8114 44.4184Z" fill="#1B1464"/>
<path d="M21.1931 30.8962C24.9451 33.4988 26.1015 39.9918 26.1967 44.2449C26.2009 44.4437 26.2037 44.6509 26.2919 44.8301C26.5761 45.4167 22.5707 45.6211 22.2459 45.6239C20.6653 45.6393 19.0833 45.4727 17.5405 45.1255C15.8661 44.7489 15.3565 44.3079 14.3611 42.8674C13.5253 41.6578 12.8715 40.3166 12.5187 38.8872C11.9461 36.5675 12.2163 33.9916 13.5225 31.9924C13.9551 31.3302 14.5025 30.731 15.1773 30.3194C16.9973 29.2121 19.4417 29.6811 21.1931 30.8962Z" fill="#F7C9A4"/>
<path d="M24.0913 44.5261C20.8783 46.7114 16.8743 45.4207 15.7389 44.4589C14.0855 43.0575 13.0299 40.9674 12.5175 38.8884C11.9449 36.5687 12.2151 33.9927 13.5213 31.9936C13.9539 31.3314 14.5013 30.7322 15.1761 30.3206C16.9961 29.2118 19.4405 29.6822 21.1933 30.896C23.1071 32.2232 24.4175 34.3861 24.7087 36.6975" fill="#F7C9A4"/>
<path d="M44.4188 36.6672C45.4489 36.5996 46.1917 35.14 46.078 33.407C45.9642 31.6741 45.037 30.3241 44.0069 30.3917C42.9769 30.4594 42.2341 31.919 42.3478 33.6519C42.4616 35.3848 43.3888 36.7348 44.4188 36.6672Z" fill="#1B1464"/>
<path d="M55.3563 33.3098C56.3864 33.2422 57.1292 31.7825 57.0155 30.0496C56.9017 28.3167 55.9745 26.9667 54.9444 27.0343C53.9144 27.1019 53.1716 28.5615 53.2853 30.2945C53.3991 32.0274 54.3263 33.3774 55.3563 33.3098Z" fill="#1B1464"/>
<path d="M51.1308 45.6391C49.5656 45.6391 48.0004 45.1757 46.9686 44.7907C46.6032 44.6535 46.417 44.2475 46.5542 43.8808C46.6914 43.5154 47.0988 43.3292 47.4642 43.4664C48.6514 43.9102 51.6026 44.8173 53.3512 43.661C53.4912 43.5686 53.5346 43.5182 53.5472 43.5C53.5514 43.4328 53.4982 43.255 53.4744 43.1766C53.0292 41.6968 52.4664 40.2254 51.9232 38.8031C51.086 36.6121 50.2208 34.3456 49.7322 31.946C49.6538 31.5638 49.9016 31.19 50.2838 31.1117C50.666 31.0333 51.0398 31.281 51.1182 31.6632C51.5844 33.9494 52.4286 36.1599 53.2448 38.2991C53.7978 39.7453 54.369 41.2418 54.8296 42.7692C54.9108 43.0366 55.0452 43.4832 54.8898 43.948C54.74 44.3973 54.3858 44.6717 54.1324 44.8397C53.2406 45.4277 52.1864 45.6391 51.1308 45.6391Z" fill="#1B1464"/>
<path d="M36.9307 33.2774C36.5891 33.2774 36.2881 33.0282 36.2335 32.6797C35.7589 29.6515 37.6349 26.4344 40.5049 25.3578C40.8703 25.2206 41.2777 25.4054 41.4149 25.7708C41.5521 26.1362 41.3673 26.5436 41.0019 26.6808C38.7367 27.5306 37.2555 30.0701 37.6307 32.4599C37.6909 32.8448 37.4277 33.2074 37.0413 33.2676C37.0035 33.2746 36.9671 33.2774 36.9307 33.2774Z" fill="#1B1464"/>
<path d="M57.3482 24.8567C57.0626 24.8567 56.7938 24.6817 56.6874 24.3989C56.5292 23.9775 56.1624 23.6261 55.6836 23.4343C55.2048 23.2425 54.6966 23.2439 54.2906 23.4371C53.9392 23.6065 53.5164 23.4567 53.3484 23.1053C53.179 22.7539 53.3288 22.3311 53.6802 22.1617C54.4418 21.7963 55.3644 21.7823 56.21 22.1211C57.0556 22.4599 57.7122 23.1081 58.0104 23.8991C58.1476 24.2645 57.9642 24.6719 57.5988 24.8105C57.5162 24.8413 57.4308 24.8567 57.3482 24.8567Z" fill="#1B1464"/>
<path d="M48.2594 52.9458C46.4716 52.9458 44.6824 52.4404 43.211 51.4366C42.889 51.2168 42.805 50.7772 43.0262 50.4538C43.246 50.1318 43.6856 50.0478 44.009 50.2676C46.389 51.8916 49.763 51.9658 52.213 50.4454C52.5448 50.2396 52.9802 50.3418 53.186 50.6736C53.3918 51.0054 53.2896 51.4408 52.9578 51.6466C51.5606 52.5146 49.91 52.9458 48.2594 52.9458Z" fill="#1B1464"/>
<path d="M40.2851 62.0132C40.2417 62.0132 40.1983 62.009 40.1535 62.0006C34.7425 60.9828 29.3133 57.6775 24.8683 52.6936C24.6079 52.4024 24.6345 51.9559 24.9257 51.6955C25.2169 51.4351 25.6635 51.4617 25.9239 51.7529C30.1631 56.5043 35.3095 59.6515 40.4153 60.6105C40.7989 60.6832 41.0509 61.0514 40.9795 61.435C40.9151 61.7766 40.6183 62.0132 40.2851 62.0132Z" fill="#1B1464"/>
<path d="M17.3431 40.7994C16.9805 40.7994 16.6711 40.5222 16.6403 40.154C16.5367 38.9556 17.0043 38.2361 17.4159 37.8427C18.1649 37.1273 19.2583 36.9397 20.0521 36.9103C19.9331 36.6401 19.7595 36.4147 19.5285 36.2313C18.4645 35.3815 16.5675 35.6475 16.5493 35.6503C16.1643 35.7063 15.8045 35.4403 15.7471 35.0553C15.6897 34.6703 15.9543 34.3105 16.3393 34.2518C16.4415 34.2364 18.8551 33.8878 20.4063 35.1211C21.1497 35.7119 21.5683 36.5449 21.6481 37.5949C21.6649 37.8077 21.5837 38.0163 21.4297 38.1633C21.2743 38.3103 21.0615 38.3775 20.8501 38.3509C20.3797 38.2907 19.0189 38.2641 18.3917 38.866C18.1159 39.1306 18.0039 39.5114 18.0501 40.0308C18.0837 40.42 17.7967 40.763 17.4075 40.7966C17.3851 40.798 17.3641 40.7994 17.3431 40.7994Z" fill="#EAAA7F"/>
</g>
<defs>
<clipPath id="clip0_463_6038">
<rect width="70" height="70" rx="35" fill="white"/>
</clipPath>
</defs>
</svg>
