<svg width="17" height="16" viewBox="0 0 17 16" fill="none" xmlns="http://www.w3.org/2000/svg">
<path d="M3.94787 15.6668C3.64439 15.6668 3.39683 15.547 3.20516 15.3075C3.01349 15.0679 2.95759 14.8043 3.03745 14.5168L3.70828 11.8335H1.57599C1.25655 11.8335 1.00099 11.7099 0.809325 11.4626C0.617659 11.2147 0.561756 10.9391 0.641617 10.6356C0.689534 10.412 0.801339 10.2363 0.977034 10.1085C1.15273 9.98072 1.35238 9.91683 1.57599 9.91683H4.18745L5.14578 6.0835H2.53433C2.21488 6.0835 1.95933 5.95987 1.76766 5.71262C1.57599 5.46473 1.52009 5.18905 1.59995 4.88558C1.64787 4.66197 1.75967 4.48627 1.93537 4.3585C2.11106 4.23072 2.31071 4.16683 2.53433 4.16683H5.62495L6.41558 1.02829C6.46349 0.820649 6.56731 0.65294 6.72703 0.525163C6.88676 0.397385 7.07842 0.333496 7.30203 0.333496C7.60551 0.333496 7.85308 0.453288 8.04474 0.692871C8.23641 0.932454 8.29231 1.196 8.21245 1.4835L7.54162 4.16683H11.375L12.1656 1.02829C12.2135 0.820649 12.3173 0.65294 12.477 0.525163C12.6368 0.397385 12.8284 0.333496 13.052 0.333496C13.3555 0.333496 13.6031 0.453288 13.7947 0.692871C13.9864 0.932454 14.0423 1.196 13.9625 1.4835L13.2916 4.16683H15.4239C15.7434 4.16683 15.9989 4.29045 16.1906 4.5377C16.3822 4.78559 16.4381 5.06127 16.3583 5.36475C16.3104 5.58836 16.1986 5.76405 16.0229 5.89183C15.8472 6.01961 15.6475 6.0835 15.4239 6.0835H12.8125L11.8541 9.91683H14.4656C14.785 9.91683 15.0406 10.0405 15.2322 10.2877C15.4239 10.5356 15.4798 10.8113 15.4 11.1147C15.352 11.3384 15.2402 11.5141 15.0645 11.6418C14.8888 11.7696 14.6892 11.8335 14.4656 11.8335H11.375L10.5843 14.972C10.5364 15.1797 10.4326 15.3474 10.2729 15.4752C10.1131 15.6029 9.92148 15.6668 9.69787 15.6668C9.39439 15.6668 9.14683 15.547 8.95516 15.3075C8.76349 15.0679 8.70759 14.8043 8.78745 14.5168L9.45828 11.8335H5.62495L4.83433 14.972C4.78641 15.1797 4.68259 15.3474 4.52287 15.4752C4.36314 15.6029 4.17148 15.6668 3.94787 15.6668ZM6.10412 9.91683H9.93745L10.8958 6.0835H7.06245L6.10412 9.91683Z" fill="#686868"/>
</svg>
